<?xml version="1.0" encoding="utf-8"?>
<!-- Generator: Adobe Illustrator 16.0.0, SVG Export Plug-In . SVG Version: 6.00 Build 0)  -->
<!DOCTYPE svg PUBLIC "-//W3C//DTD SVG 1.1//EN" "http://www.w3.org/Graphics/SVG/1.1/DTD/svg11.dtd">
<svg version="1.1" id="Layer_1" xmlns="http://www.w3.org/2000/svg" xmlns:xlink="http://www.w3.org/1999/xlink" x="0px" y="0px"
	 width="120px" height="120px" viewBox="0 0 120 120" enable-background="new 0 0 120 120" xml:space="preserve">
<g id="gb">
	<path id="gb-nir" fill="#8F8F8F" d="M30.479,56.478c0.275,0.369,0.643,0.645,1.01,0.46c0.551-0.275,0.734-1.194,1.286-1.468
		c0.549-0.367,1.192,0.458,1.744,0.367c0.642,0,1.101-0.46,1.652-0.367c0.643,0.091,1.01,0.733,1.56,0.916
		c0.276,0.185,0.827-0.183,0.919,0.092c0.367,0.645,0.55,1.562,0.367,2.296c0,0.275-0.367,0.368-0.367,0.55
		c1.009,3.947,0.55-1.193,1.652,2.295c0.367,1.012-2.019,2.388-2.019,2.388c1.561-0.368,3.211-1.562,2.937,2.111
		c-0.367,3.581-2.937,1.65-3.672,2.479c-0.642,0.643-0.184,2.109-1.836,1.833c-0.367,0-0.642-0.366-0.917-0.643l-0.369-0.457
		c-1.375-0.827,0.552,1.284-2.569,0.183c-0.459-0.09,0.184-0.916,0.367-1.376c0.092-0.643-0.826-0.459-1.009-0.828
		c-0.459-0.917,0-3.119-1.01-2.936c-3.947,0.55,1.102,2.388-3.122,2.752c-1.375,0.094-4.957-4.681-4.589-5.14
		c0.092,0,3.671-0.918,3.671-0.918c0.185-0.549-1.009-0.824-1.102-1.376c-0.183-0.55,2.204,0.183,2.48,0
		C29.011,58.774,28.459,56.478,30.479,56.478L30.479,56.478L30.479,56.478z"/>
	<path id="gb-main" fill="#8F8F8F" d="M46.315,79.68c1.651,1.286,3.03,2.021,1.284,2.848 M46.59,82.984
		c-0.274,0.183-0.551,0.276-0.826,0.276c-0.276,0,0.275-0.367,0.184-0.553c-0.552-1.927-1.928-2.293,0.367-3.028 M55.77,17.35
		c0.551,0.275,1.745,0.825,1.835,1.469c0,0.458-1.284,1.284-0.917,1.009c0.55-0.367,0.735-1.468,1.376-1.376
		c0.552,0.183-0.092,1.376,0.368,1.743c0.367,0.275,0.552-0.734,0.917-0.826c1.378-0.367,4.499,0.184,6.334,0.459
		c0.734,0.091,1.745-0.551,2.203,0c0.459,0.458-0.733,0.917-1.01,1.468c-0.184,0.552,0,1.103-0.184,1.653
		c-0.183,0.458-5.966,3.947-7.068,4.772c-1.836,1.379,0.826-0.183,1.742,0.552c0.369,0.184-0.457,0.551-0.824,0.827
		c-0.275,0.275-0.458,0.733-0.917,0.826c-0.185,0,0-0.643-0.185-0.643c-0.367-0.092-0.643,0.275-0.916,0.367
		c-0.644,0.275-0.735-0.459-1.01,0.183c-0.735,1.653,1.01,2.203,1.469,1.653c0.091-0.185-0.368-0.459-0.185-0.459
		c0.46-0.092,0.919,0.274,1.47,0.274c1.01-0.091,2.293-1.193,3.58-0.918c0.644,0.092,1.192,0.735,1.836,0.918
		c1.561,0.46,6.7,0.368,7.528,2.205c0.182,0.549,0.275,1.101,0.091,1.652l-2.111,2.111c-0.275,0.367-0.458,0.826-0.55,1.286
		c-0.092,0.183,0.092,0.367,0,0.459c-0.734,1.376-4.591,6.793-5.785,6.884c-1.835,0.184-2.479-0.735-4.038,0.458
		c-0.275,0.184,0.549,0.276,0.825,0.184c0.734-0.091,1.378-0.55,2.022-0.642c1.282-0.091,0.275,0.827,0.365,1.102
		c0.275,0.642,1.47,0.826,1.378,1.469c-0.275,2.02-2.204,0.274-2.756,0.366c-2.844,0.46,2.295,1.653-3.67,1.194
		c-0.092,0-0.092,1.01,0,1.01c0.641,0.275-0.092-0.274,0.55-0.184c0.735,0.184,2.296,1.376,3.12,0.826
		c0.368-0.275,0.46-0.917,0.828-1.101c0.185-0.092,3.672,2.478,4.038,2.844c0.643,0.46,0.918,2.755,1.56,3.489
		c0.368,0.367,0.919,0.459,1.193,0.827c0.093,0.184-0.091,0.368-0.091,0.643c-0.092,0.551-0.092,1.194-0.092,1.743
		c0.092,1.653,0.735,8.446,1.285,9.823c0.093,0.185,0.274-0.367,0.46-0.274c0.366,0.09,0.642,0.55,1.009,0.735
		c1.654,1.009,1.286,0.184,2.846,2.11c0.552,0.642,0.274,1.745,0.734,2.478c0.46,1.012,1.745,0.091,1.745,1.929
		c0,0.55-1.011,0.55-1.103,1.101c-0.367,1.471,1.378,3.581,1.745,4.866c0.459,1.745-1.009-0.828-1.103,1.103
		c0,0.459,3.304,3.947,1.652,5.69c-1.284,1.284-1.836-0.184-2.753,2.111c-0.092,0.274,0.641-0.092,0.824,0.092
		c0.37,0.275,0.46,0.825,0.736,1.102c0.275,0.274,0.733,0.735,1.009,0.551c1.835-1.191,0.459-2.389,2.388-2.112
		c3.12,0.46,8.169,1.836,7.252,6.793c-0.275,1.56-2.387,5.691-3.947,6.242c-0.553,0.185-1.377-0.916-1.561-0.459
		c-0.826,1.654,3.488,1.193-0.186,2.205c-0.274,0.091-0.458-0.096-0.734-0.276c-0.091,0-0.091-0.184-0.183-0.184
		c-0.733,0.091-1.836-0.091-2.203,0.46c-0.275,0.548,1.377-0.184,1.744,0.273c0.367,0.366,0.092,1.103-0.183,1.56
		c-0.735,1.195-2.754,0.369-3.763,0.735c-0.277,0.092-1.011,0.369-0.736,0.553c0.092,0,2.754-0.829,2.662,0.366
		c-0.092,0.459-1.102-0.092-1.469,0.183c-0.275,0.276,0.734,0.735,1.102,0.551c0.183-0.183,0.183-0.733,0.459-0.733
		c0.368-0.092,0.735,0.276,1.102,0.551c1.285,1.192-2.662,0.552,0,1.01c1.285,0.183,2.662-0.827,4.04-0.276
		c0.365,0.095-0.552,0.553-0.645,0.917c-0.182,0.646-0.091,1.287-0.182,2.021c-0.276,0.916-1.929,0.551-2.847,1.01
		c-0.367,0.275-0.092,1.192-0.552,1.376c-1.651,0.55-0.825-0.917-1.835-0.274s-1.928,0.366-2.938,0.824
		c-0.459,0.184-0.642,0.921-1.191,0.921c-0.827,0-2.296-1.562-3.123-1.745c-0.642-0.093-5.231,1.008-5.506,0
		c-0.093-0.459,1.192-0.093,0.274-0.733c-0.549-0.368-0.274,0.457-0.459,0.733c-0.184,0.091-0.46-0.093-0.552-0.276
		c0-0.274,0.644-0.55,0.368-0.55c-0.276-0.093-0.552,0.55-0.827,0.457c-0.273-0.09,0.275-0.55,0.092-0.826
		c-0.642-0.824-0.274,0.826-0.549,0.736c-1.104-0.367-1.93-2.203-2.204-1.929c-0.368,0.459,0.734,1.102,0.643,1.654
		c-0.092,0.917-5.232-0.278-5.415,0c-0.277,0.457,0.641,1.1,0.549,1.65c-0.092,0.276-0.549-0.093-0.826-0.093h-0.092
		c-0.458-0.275-1.927-1.283-2.387-1.101c-0.551,0.276-0.367,1.101-0.643,1.562c-0.183,0.183,0.184-0.553,0.092-0.827
		c-0.183-0.459-0.642-0.828-1.101-1.192c-1.193-1.197-4.681-2.02-6.334-1.378c0,0-1.01,4.406-2.387,5.048
		c-1.101,0.459-3.028-2.203-3.764-2.57c-0.458-0.275,0.919,0.827-0.274,0.551c-1.101-0.274-2.662-1.376-3.947-1.01
		c-0.46,0.091-0.276,0.917-0.643,1.101c-0.551,0.186-1.193-0.184-1.836-0.184c-0.092,0-0.184,0-0.276,0.093
		c-0.184,0.459-1.284,2.755-1.651,2.755c-0.551-0.091-0.274-1.284-0.643-1.745c-0.551-0.919-2.753-0.274-2.753-1.284
		c0-0.643,3.671-0.828,3.763-0.828c0.367-0.091,0.734-0.457,1.009-0.826c0.184-0.09,0-0.457,0.184-0.549
		c0.183-0.183,0.551,0.092,0.734,0c0.643-0.551,0.826-1.378,1.469-1.837c0.276-0.184,0.734,0.183,1.009,0.093
		c0.276-0.183,0.184-0.553,0.46-0.735c0.459-0.457,1.285-0.551,1.744-1.101c0.276-0.366,0.184-2.479,0.826-2.755
		c0.367-0.093,0.734,0.643,1.102,0.734c2.112,0.185-0.367-3.029,4.773-2.112c1.744,0.278,4.04,2.664,5.783,1.285
		c0.551-0.457,0.368-1.376,0.643-1.929c0.092-0.181,4.498-2.936,5.048-3.576c0.551-0.645-2.387,1.285-2.754,1.56
		c-0.458,0.184-0.917,0.276-1.377,0.366c-0.275,0-0.458-0.459-0.733-0.366c-2.295,0.643-1.745,2.569-4.5,1.01
		c-0.917-0.644-0.733-2.204-1.56-3.029c-0.734-0.735-2.112,0.917-3.028,0.46c-0.184-0.093-0.368-2.939-0.459-3.214
		c-0.092-0.184-0.184,0.366-0.368,0.366c-0.642,0.091,0.185-0.641-2.019,0c-0.276,0-0.184,0.551-0.367,0.735
		c-0.551,0.186-1.286,0.367-1.836,0.186c-0.458-0.095-1.285-0.646-1.102-1.013c0.275-0.549,1.193-0.185,1.745-0.274
		c0.275-0.093-2.295-0.184-2.571-0.553c-0.366-0.55-0.183-1.284-0.183-1.925c0-1.837,3.396-0.829,3.855-1.012
		c0.55-0.185,0.642-1.102,1.286-1.194c0.458,0,0.917,0.461,1.377,0.369c1.469-0.369,4.406-2.846,4.957-4.131
		c0.183-0.369-0.185-3.947-0.735-4.498c-1.56-1.927-3.305,3.581-3.946-0.183c-0.184-0.646,1.744-0.736,2.937-1.652
		c0.184-0.274,0.092-0.736,0.276-1.01c0.184-0.276,0.367-0.46,0.551-0.553c0.367-0.276,0.734-0.366,1.009-0.457
		c0.644,0,1.193,0.275,2.479-0.186c0.184-0.093-0.367-0.733-0.091-0.642c0.642,0.091,1.009,0.827,1.652,0.918
		c1.285,0.185,1.561-1.01,2.478-0.187c0.459,0.462,0.643,1.839,1.194,1.472c0.551-0.366-0.459-1.376-0.276-2.019
		c0.092-0.37,2.203,1.282,1.836,1.1c-0.826-0.457-1.192-1.836-1.009-2.844c0.091-0.552,0.642-1.012,1.101-1.378
		c0.368-0.278,1.285,0,1.193-0.459c-0.184-0.551-1.285-0.551-1.468-1.103c-1.193-2.569,1.928-0.55,1.928-1.65
		c0.092-0.553-0.644-0.276-0.368-0.919c0.275-0.643,1.102-1.102,1.011-1.836c-0.093-1.377-1.195,1.103-2.479,1.193
		c-0.826,0,0.275-1.745,0-2.479c-0.183-0.368-0.643,0.734-1.01,0.643c-1.103-0.366-0.183-1.378-0.275-1.928l-1.103-2.293
		c-0.091-1.103,2.938-4.134,3.03-4.134c0.182,0.094,0.092,0.551,0.275,0.46c0.733-0.184,1.744-0.366,1.927-1.007
		c0.184-0.555-1.102,0-1.653-0.094c-0.367-0.093-0.734-0.552-1.192-0.461c-0.551,0.186-0.826,0.919-1.376,1.102
		c-0.46,0.187-1.011-0.183-1.469-0.09c-0.55,0.184-0.826,0.641-1.286,0.826c-0.184,0.091-0.458,0.091-0.55-0.093
		c-0.092-0.276,0.459-0.733,0.184-0.826c-0.276-0.091-0.184,0.55-0.367,0.733c-0.092,0.093-0.276,0-0.368-0.091
		c-0.458-0.55-0.458-1.927-1.469-2.112c-1.286-0.273,0.458,1.288-0.458,2.756c-0.368,0.551-0.828-0.917-1.194-1.468
		c-2.663-3.489,0.091,0.551-3.489-1.562c-0.917-0.55,1.285-0.093,1.194-0.55c-0.092-2.113,0.275-1.93,1.56-3.398
		c2.387-2.663-1.652,0.459,1.285-2.204c0.276-0.275,0.919-0.275,1.102-0.643c0.367-0.641-1.377-2.753-1.469-2.937
		c-0.092-0.276,0.459-0.276,0.55-0.551c0.275-0.642,0-1.469,0.275-2.203c0.368-0.827,1.102,0.092,1.928,0.459
		c3.029,1.377-1.561-0.827-1.561-1.01c-0.274-0.55,0-1.285,0.092-2.019c0-0.46,0.367-1.01,0.092-1.378
		c-0.092-0.092-3.764,1.929-4.04,2.204c-0.733,0.643,0.459,1.928,0.276,2.938c-0.091,0.367-0.826,0.275-1.101,0.55
		c-0.184,0.184-0.367,0.459-0.367,0.734c-0.093,0.276,0.091,0.643,0,0.826c-0.277,0.734-1.011,1.103-1.287,1.837
		c-0.091,0.184,0.459,0.55,0.276,0.643c-0.642,0.367-1.469,0.642-2.203,0.367c-0.552-0.275,0.733-1.009,1.01-1.468
		c0.551-0.735,0.368-1.928,0.917-2.663l1.928-1.653c-0.183-0.459-1.194,0.184-1.376-0.275c-0.185-0.368,2.478-1.928,1.193-2.203
		c-0.552-0.185-0.827,1.193-1.286,0.917c-0.55-0.458,1.286-0.825,1.653-1.467c0.367-0.735,0.091-2.388,0.367-3.029
		c0.184-0.552,0.643-1.102,1.103-1.194c0.459-0.093,1.285,0.918,1.285,0.459c0-0.459-1.01-0.459-1.285-0.919
		c-0.643-1.284,3.121-1.926,3.212-1.926c0.275-0.276-1.193,0.091-1.193-0.276c0-0.552,0.918-0.643,1.102-1.195
		c0.184-0.275-0.551,0.184-0.827,0.46c-0.642,0.458-0.551,0.643-1.101,0.917c-1.193,0.643-2.296,1.653-3.121,1.286
		c0.092,0.183,0.182,0.274,0.367,0.367c0.092,0.183,0.458,0.366,0.275,0.551c-0.734,0.642-4.405,1.927-5.049,0.642
		c-0.092-0.092,0-0.367,0.092-0.367c1.836-0.735,0.368,2.019,2.662-1.102c1.469-1.928-4.313-0.918-0.183-2.295
		c0.183,0.367,0.367,0.735,0.642,1.011c0.093,0.183,0.275,0.366,0.459,0.458c-0.184-0.275-0.366-0.642-0.459-1.102
		c-0.092-0.275,0.642,0,0.918,0c0.734,0,1.47,0.368,2.111,0.092c0.825-0.367-4.958-0.275-4.222-1.377
		c0.55-0.734,2.937,0.275,3.121-0.092c0.367-0.917-2.295-2.019,0.275-2.662c0.643-0.184,1.285,0.643,2.019,0.459
		c2.479-0.551-0.641-2.204-0.641-2.204c0.274-0.642,1.651,0.184,2.11-0.367c0.459-0.55,0.093-1.469,0.093-2.203
		c0-0.551,0.091-1.102-0.093-1.468c-0.091-0.183-3.121-3.397-1.101-4.223c0.458-0.276,0.551,1.468,1.101,1.285
		c0.735-0.184-0.275-2.295,0.827-1.652c1.469,0.826,1.561,0.919,1.561,0.826c0.276-1.193-0.735-1.285-0.643-2.479
		c0-0.458,1.193,0.551,1.376,0.093c0.367-0.643-0.458-1.468-0.367-2.112c0-0.275,0.275,0.459,0.551,0.459
		c0.643,0.277,1.653,0.826,2.111,0.277c0.368-0.46-0.918-0.919-1.101-1.47c-0.459-1.56,0.917-0.368,0.917-0.368
		c0.184-0.183-0.275-0.55-0.184-0.734c0.184-0.091,0.644,0.367,0.644,0.184c0-0.275-0.644-0.458-0.551-0.734
		C54.851,18.36,55.403,17.9,55.77,17.35L55.77,17.35z M82.941,0c0,0.276,0.184,0.459,0.091,0.644
		c-0.091,0.183-0.549-0.094-0.549,0.091c-0.094,0.458,0.826-0.459,1.285-0.368c0.274,0.092-0.459,0.46-0.644,0.735
		c0,0.091,0.368,0.367,0.276,0.458c-0.184,0.092-0.552-0.367-0.643-0.092c0,0.184,0.551,0.184,0.551,0.459
		c0.092,0.826-1.103,0.55-1.011,0.826c0.091,1.193,0.185,2.111-1.652,4.04c-0.091,0.183,0.091-0.368,0.184-0.552
		c0.551-1.193,1.56-3.213,1.102-3.487c-0.366-0.368-0.733,1.01-1.194,0.734c-0.642-0.275-0.917-1.102-1.101-1.744
		c-0.092-0.183,0.275-0.091,0.459-0.183c0.734-0.092,1.47,0.092,2.111-0.184C82.666,1.103,82.666,0.459,82.941,0L82.941,0z
		 M70.733,16.524c-1.194,2.387-6.702-2.754-2.847-3.03c0.551,0,1.102,0.644,1.102,1.287c0.091,0.367-1.102,0.275-0.918,0.551
		c0.275,0.55,1.103,0.55,1.651,0.733C69.998,16.248,70.366,16.34,70.733,16.524z M47.967,18.453
		c-0.458,0.733-1.744,1.467-1.928,2.018c-0.091,0.46-0.183,3.03-1.377,3.03c-0.642-0.093-0.55-1.101-1.009-1.56
		c-0.55-0.368,0.183,1.56-0.367,1.834c-0.275,0.092-0.643-0.367-0.826-0.183c-0.644,0.367-0.734,1.652-1.469,1.652
		c-0.643,0-1.194-1.103-0.827-1.652c0.368-0.643,1.929,0.458,2.204-0.275c0.275-0.643-1.285-0.734-1.561-1.468
		c-0.091-0.276,0.643-0.185,0.826-0.368c0.093-0.092-0.274,0-0.274-0.092c-0.184-0.367-0.275-0.734-0.184-1.102
		c0.826-2.294,1.468-0.183,2.753,0.092c0.093,0-0.459-1.376-0.183-1.652c0.917-1.102,0.917-0.091,1.837-0.183
		c0.091-0.091,0.091-0.369,0.183-0.369c0.551-0.458,1.101-1.193,1.744-1.102C47.967,17.166,47.784,17.993,47.967,18.453z"/>
</g>
</svg>
