<?xml version="1.0" encoding="utf-8"?>
<!-- Generator: Adobe Illustrator 16.0.0, SVG Export Plug-In . SVG Version: 6.00 Build 0)  -->
<!DOCTYPE svg PUBLIC "-//W3C//DTD SVG 1.1//EN" "http://www.w3.org/Graphics/SVG/1.1/DTD/svg11.dtd">
<svg version="1.1" id="Layer_1" xmlns="http://www.w3.org/2000/svg" xmlns:xlink="http://www.w3.org/1999/xlink" x="0px" y="0px"
	 width="800px" height="235px" viewBox="0 0 800 235" enable-background="new 0 0 800 235" xml:space="preserve">
<g>
	<path d="M286.5,234.984c0,0,77-32.5,94.5-88c4.219-13.379,8.139-34.027,11.625-44.25c1.938-5.68,4.925-5.411,4.925-5.411
		s1.783,0.285,2.45,2.536c0.796,2.686,0.729,2.485,9,33.625c0,0,14.667,60.834,32.5,76c17.225,14.648,56.5,26,58,25.5"/>
	<path d="M404.5,102.833c0,0-3,1,9,28.5L404.5,102.833z"/>
	<path d="M419.5,153.333c0,0,4,11.5,13,28L419.5,153.333z"/>
	<path d="M416.58,133.684c0.482,1.587,7.556,22.702,23.34,42.799L416.58,133.684z"/>
	<path d="M393.875,96.333c0,0,4-5.958,9,0.042c0,0-2.25-1.666-4.333-1.75S393.875,96.333,393.875,96.333z"/>
	<path d="M388.5,103.833c0,0-8.167,22.75-9.667,33.75L388.5,103.833z"/>
	<path d="M375.5,145.333c0,0-1,9-19.883,29.07L375.5,145.333z"/>
	<path d="M379.5,117.333c0.125-0.25,4-14.125,5.75-15.625S379.5,117.333,379.5,117.333z"/>
	<path d="M438.667,196.333c0,0,10.166,15.667,30.666,23C453,209.333,448.5,205.499,445,201.666S438.667,196.333,438.667,196.333z"/>
</g>
<g>
	<defs>
		<path id="SVGID_1_" d="M286.5,234.984c0,0,77-32.5,94.5-88c4.219-13.379,8.139-34.027,11.625-44.25
			c1.938-5.68,4.925-5.411,4.925-5.411s1.783,0.285,2.45,2.536c0.796,2.686,0.729,2.485,9,33.625c0,0,14.667,60.834,32.5,76
			c17.225,14.648,56.5,26,58,25.5"/>
	</defs>
	<clipPath id="SVGID_2_">
		<use xlink:href="#SVGID_1_"  overflow="visible"/>
	</clipPath>
	<g clip-path="url(#SVGID_2_)">
		<polygon fill="#FFFFFF" points="359.902,236.333 311.778,221.26 318.354,200.266 383.723,220.739 378.838,236.333 		"/>
		<text transform="matrix(0.9543 0.2989 -0.2989 0.9543 330.8818 219.9395)" font-family="'MyriadPro-Regular'" font-size="12">Privacy</text>
	</g>
	<g clip-path="url(#SVGID_2_)">
		<polyline fill="#FFFFFF" points="435.878,205.109 359.402,215.845 356.699,196.587 426.472,186.794 447.537,203.474 		"/>
		<text transform="matrix(0.9903 -0.139 0.139 0.9903 369.5703 208.1533)" font-family="'MyriadPro-Regular'" font-size="12">Transparency</text>
	</g>
</g>
<path fill="#475993" d="M323.798,24.135h-54.77c-5.58,0-10.104,4.523-10.104,10.104v54.77c0,5.58,4.523,10.104,10.104,10.104h27.012
	l0.046-26.792h-6.961c-0.904,0-1.639-0.731-1.642-1.636l-0.033-8.637c-0.004-0.91,0.732-1.648,1.643-1.648h6.947v-8.346
	c0-9.684,5.915-14.957,14.554-14.957h7.089c0.907,0,1.643,0.735,1.643,1.643v7.282c0,0.906-0.735,1.642-1.642,1.643l-4.351,0.002
	c-4.698,0-5.607,2.232-5.607,5.509v7.225h10.323c0.983,0,1.747,0.858,1.631,1.836l-1.023,8.636
	c-0.098,0.826-0.799,1.449-1.631,1.449h-9.254l-0.046,26.792h16.072c5.58,0,10.104-4.523,10.104-10.104v-54.77
	C333.902,28.659,329.378,24.135,323.798,24.135z"/>
<g>
	<g>
		<path fill="#A66D30" d="M320.073,127.017l-52.612-95.248c-1.832-3.301-5.655-4.634-8.961-2.811
			c-3.301,1.832,4.05,22.46,5.876,25.757l43.679,78.944l9.121,1.26L320.073,127.017z"/>
		<path fill="#D9A13F" d="M320.073,127.017l-12.019,6.643l-1.475,0.822c-2.31,1.279-3.153,4.215-1.876,6.525l3.572,6.455
			l14.277,1.549l9.087-14.475l-3.573-6.457c-1.277-2.311-4.213-3.154-6.522-1.875L320.073,127.017z"/>
		<path fill="#F5DF87" d="M345.519,134.083l3.669,4.92l3.583,4.803l3.769,5.055l25.059,33.59c2.072,2.781,0.732,6.812-2.104,8.385
			l-48.941,27.078c-2.837,1.566-6.967,0.561-8.222-2.674l-15.141-39.066l-6.667-17.203c-1.257-3.23-0.732-6.814,2.102-8.381
			l34.667-19.182C340.135,129.843,343.438,131.298,345.519,134.083z"/>
		<path fill="#FF698F" d="M349.189,139.003l-46.441,25.703l4.442,11.467l49.354-27.312L349.189,139.003z"/>
		<path fill="#A66D30" d="M304.704,141.007l3.572,6.455l4.533-2.508l-3.572-6.457c-0.832-1.504-0.769-3.264,0.014-4.666
			c0.429-0.762,1.057-1.412,1.864-1.857l-3.061,1.686l-1.475,0.822C304.271,135.761,303.427,138.696,304.704,141.007z"/>
		<path fill="#6E3E0B" d="M255.444,38.41l52.61,95.249l3.06-1.684l1.517-0.848l-52.612-95.249c-1.378-2.491-1.028-5.499,0.653-7.607
			c-0.87,0.102-1.733,0.368-2.547,0.812C254.825,30.916,253.618,35.112,255.444,38.41z"/>
		<path fill="#D9A13F" d="M307.19,176.173l15.143,39.068c1.255,3.232,5.384,4.238,8.219,2.67l6.574-3.637
			c-2.836,1.568-6.962,0.562-8.22-2.672l-15.148-39.07L307.19,176.173z"/>
		<path fill="#CF4B82" d="M302.749,164.706l4.442,11.467l6.566-3.639l-4.443-11.467L302.749,164.706z"/>
		<path fill="#D9A13F" d="M300.522,158.972l2.226,5.734l6.565-3.641l-2.22-5.723c-1.131-2.918-0.816-6.117,1.332-7.865
			c0.225-0.188,0.473-0.359,0.75-0.506l-0.9,0.49l-5.649,3.127C299.79,152.157,299.267,155.737,300.522,158.972z"/>
	</g>
	<path fill="#D9A13F" d="M347.418,185.874l9.615,17.387l-4.017,2.223l-0.002-0.002l-9.615-17.387
		c-0.614-1.109-0.212-2.508,0.897-3.121C345.408,184.36,346.805,184.761,347.418,185.874z"/>
	<path fill="#D9A13F" d="M353.368,171.753l16.839,23.832c0.068,0.096,0.127,0.191,0.174,0.291l-4.016,2.221l-16.748-23.693
		c-0.73-1.035-0.482-2.467,0.552-3.199S352.637,170.718,353.368,171.753z"/>
	<path fill="#D9A13F" d="M333.137,183.622l11.146,26.693l-4.026,2.229c-0.043-0.072-0.083-0.148-0.114-0.227l-11.245-26.926
		c-0.487-1.172,0.065-2.516,1.236-3.002C331.303,181.897,332.649,182.45,333.137,183.622z"/>
</g>
<g>
	<path fill="#FFFFFF" d="M291.125,103.874c0,0,7.875-3.25,8.25-3.375s-2-5.375-2-5.375l-0.625-6.375l4.375-2.125l6,6.875l6.75,5.25
		l3.5-0.25l5.25,10.25l4.625,0.75c0,0,1.625,3.25,1.5,3.625s-8.25,3.75-8.25,3.75s-8.125,6.125-8.5,6.25s-7.625,1.5-7.75,1.875
		s-5.125-1.875-5.125-1.875l-3.375-5.25l-2-5.875l-2.75-3L291.125,103.874z"/>
	<path fill="#475993" stroke="#FFFFFF" stroke-miterlimit="10" d="M291.685,113.723c0.387,1.234,1.055,2.296,2,3.179
		c0.058,0.353,0.142,0.705,0.252,1.059c0.507,1.619,1.436,2.896,2.785,3.83c0.682,2.236,1.916,3.783,3.7,4.643
		s3.808,0.936,6.069,0.229l0.867-0.271l2.238-0.701c1.54-0.482,3.004-1.139,4.392-1.967c1.387-0.832,2.959-1.9,4.717-3.209
		c1.661-1.225,2.667-1.893,3.02-2.002l6.932-2.17c0.85-0.268,1.481-0.796,1.896-1.586c0.413-0.789,0.486-1.609,0.22-2.461
		l-4.821-15.402c-0.267-0.85-0.795-1.481-1.584-1.895c-0.79-0.414-1.61-0.488-2.46-0.222l-6.595,2.063
		c-0.698-0.203-2.186-1.104-4.465-2.697c-1.307-0.913-2.487-1.671-3.539-2.275c-0.511-0.28-1.011-0.877-1.5-1.79
		c-0.488-0.913-1.05-1.852-1.687-2.814c-0.636-0.963-1.405-1.675-2.305-2.132c-0.812-0.398-1.627-0.469-2.446-0.213
		c-1.347,0.421-2.477,1.062-3.389,1.92c-0.912,0.857-1.475,1.928-1.69,3.211c-0.214,1.283-0.029,2.863,0.559,4.741
		c0.467,1.492,1.335,2.911,2.602,4.259l-4.236,1.326c-1.669,0.522-2.922,1.583-3.76,3.185c-0.837,1.603-0.997,3.229-0.479,4.882
		c0.447,1.428,1.248,2.611,2.407,3.554C291.403,112.567,291.505,113.146,291.685,113.723z M324.127,112.685
		c-0.131-0.418-0.09-0.827,0.119-1.228c0.209-0.399,0.523-0.665,0.94-0.796s0.826-0.091,1.226,0.117
		c0.4,0.211,0.666,0.523,0.796,0.941c0.131,0.417,0.091,0.826-0.118,1.225c-0.21,0.402-0.523,0.667-0.94,0.797
		c-0.417,0.132-0.827,0.092-1.226-0.117C324.525,113.414,324.258,113.102,324.127,112.685z M292.062,107.501
		c-0.256-0.82-0.167-1.635,0.265-2.448c0.433-0.815,1.05-1.347,1.853-1.598l8.472-2.651c-0.292-0.932-1.077-2.09-2.357-3.479
		c-1.28-1.387-2.068-2.554-2.365-3.5c-0.492-1.572-0.6-2.816-0.322-3.73c0.277-0.916,1.187-1.613,2.726-2.096
		c0.548,0.287,1.067,0.873,1.556,1.76c0.488,0.886,1.047,1.816,1.679,2.791c0.631,0.973,1.383,1.703,2.257,2.187
		c0.468,0.259,1.314,0.796,2.539,1.61c0.089,0.06,0.349,0.243,0.779,0.548c0.43,0.306,0.786,0.557,1.067,0.751
		c0.28,0.192,0.664,0.447,1.151,0.762c0.486,0.314,0.917,0.566,1.294,0.758c0.377,0.189,0.775,0.378,1.194,0.564
		c0.419,0.186,0.808,0.303,1.167,0.348c0.357,0.047,0.665,0.031,0.922-0.05l0.77-0.241l4.821,15.401l-0.77,0.241
		c-0.208,0.066-0.454,0.169-0.735,0.311c-0.282,0.14-0.53,0.275-0.746,0.404c-0.215,0.129-0.492,0.312-0.832,0.551
		c-0.34,0.239-0.591,0.418-0.756,0.541c-0.165,0.121-0.418,0.312-0.761,0.568c-0.342,0.256-0.548,0.414-0.618,0.471
		c-3.02,2.232-5.579,3.676-7.682,4.334l-2.911,0.912c-3.081,0.965-5.041,0.105-5.879-2.572c-0.131-0.418-0.232-0.88-0.302-1.388
		c-0.562-0.104-1.075-0.407-1.539-0.903c-0.464-0.499-0.789-1.045-0.975-1.639c-0.186-0.594-0.215-1.191-0.086-1.795
		c-1.102-0.537-1.825-1.357-2.171-2.465c-0.126-0.402-0.186-0.871-0.178-1.41c0.007-0.54,0.088-0.984,0.244-1.332
		c-0.519,0.145-1.066-0.098-1.642-0.728C292.614,108.657,292.239,108.062,292.062,107.501z"/>
</g>
<g>
	<path fill="#FFFFFF" d="M283.522,45.118c0,0-8.16,2.448-8.53,2.587c-0.37,0.14-1.84-5.432-1.84-5.432l-3.538-5.34l-4.735,1.112
		l-0.316,9.12l-1.924,8.332l-2.873,2.015l2.395,11.264l-3.115,3.5c0,0,0.79,3.547,1.124,3.759c0.333,0.212,8.767-2.296,8.767-2.296
		s10.168-0.375,10.538-0.515c0.37-0.14,6.862-3.647,7.195-3.436c0.334,0.212,2.793-4.688,2.793-4.688l-0.694-6.203l-2.156-5.82
		l0.24-4.062L283.522,45.118z"/>
	<path fill="#475993" stroke="#FFFFFF" stroke-miterlimit="10" d="M288.446,51.58c0.304-1.462,0.179-2.887-0.376-4.276
		c-0.641-1.608-1.791-2.769-3.451-3.485c-1.66-0.714-3.302-0.746-4.927-0.098l-4.123,1.645c0.133-1.845-0.09-3.494-0.668-4.946
		c-0.729-1.829-1.583-3.171-2.559-4.031c-0.976-0.859-2.088-1.334-3.337-1.425c-1.25-0.09-2.531,0.126-3.841,0.649
		c-0.797,0.318-1.385,0.887-1.763,1.708c-0.41,0.923-0.557,1.96-0.443,3.109c0.114,1.148,0.27,2.231,0.468,3.248
		c0.197,1.017,0.186,1.795-0.033,2.335c-0.435,1.132-0.873,2.465-1.31,3.999c-0.762,2.674-1.349,4.312-1.762,4.91l-6.418,2.56
		c-0.827,0.33-1.417,0.905-1.77,1.724c-0.351,0.819-0.362,1.642-0.033,2.47l5.979,14.991c0.331,0.829,0.905,1.418,1.724,1.771
		c0.82,0.351,1.642,0.362,2.47,0.033l6.747-2.69c0.343-0.137,1.544-0.255,3.606-0.353c2.189-0.094,4.083-0.257,5.685-0.487
		c1.599-0.233,3.148-0.647,4.647-1.245l2.179-0.868l0.844-0.336c2.2-0.878,3.723-2.215,4.564-4.007
		c0.842-1.792,0.823-3.771-0.06-5.937c0.458-1.576,0.373-3.152-0.256-4.729c-0.138-0.344-0.294-0.67-0.472-0.98
		c0.176-1.282,0.024-2.526-0.455-3.728C289.077,52.55,288.792,52.038,288.446,51.58z M263.453,74.009
		c-0.178,0.415-0.47,0.704-0.876,0.865c-0.406,0.162-0.816,0.154-1.232-0.025c-0.414-0.178-0.704-0.47-0.865-0.876
		c-0.163-0.407-0.154-0.817,0.024-1.232c0.179-0.414,0.471-0.703,0.877-0.865c0.406-0.162,0.816-0.154,1.231,0.024
		c0.415,0.179,0.705,0.471,0.867,0.877C263.641,73.184,263.631,73.594,263.453,74.009z M285.337,50.622
		c-0.05,0.852-0.321,1.386-0.815,1.601c0.34,0.172,0.684,0.465,1.03,0.879c0.346,0.414,0.595,0.815,0.752,1.207
		c0.43,1.077,0.386,2.17-0.13,3.281c0.481,0.387,0.835,0.87,1.066,1.448c0.23,0.578,0.323,1.206,0.278,1.886
		c-0.047,0.678-0.253,1.236-0.624,1.672c0.266,0.438,0.479,0.86,0.641,1.267c1.04,2.607,0.062,4.511-2.937,5.706l-2.834,1.129
		c-2.047,0.816-4.943,1.312-8.694,1.486c-0.09,0-0.349,0.008-0.777,0.024c-0.427,0.018-0.744,0.03-0.949,0.039
		s-0.513,0.029-0.928,0.058c-0.413,0.03-0.745,0.062-0.993,0.098c-0.249,0.036-0.526,0.088-0.833,0.157
		c-0.308,0.068-0.563,0.143-0.766,0.223l-0.75,0.298l-5.979-14.99l0.75-0.299c0.25-0.1,0.499-0.281,0.747-0.542
		c0.249-0.262,0.477-0.597,0.685-1.006c0.208-0.41,0.397-0.807,0.57-1.192c0.172-0.386,0.347-0.854,0.526-1.404
		c0.179-0.551,0.316-0.991,0.412-1.318c0.095-0.328,0.213-0.747,0.354-1.255c0.142-0.508,0.228-0.814,0.259-0.917
		c0.436-1.405,0.753-2.355,0.954-2.851c0.373-0.926,0.496-1.967,0.371-3.12c-0.125-1.155-0.278-2.23-0.459-3.225
		c-0.179-0.996-0.147-1.778,0.097-2.347c1.499-0.598,2.645-0.63,3.437-0.094c0.793,0.534,1.494,1.567,2.105,3.097
		c0.367,0.921,0.491,2.324,0.374,4.208c-0.118,1.885,0.004,3.279,0.366,4.185l8.245-3.289c0.781-0.311,1.596-0.289,2.445,0.07
		c0.849,0.358,1.432,0.935,1.75,1.732C285.301,49.069,285.385,49.768,285.337,50.622z"/>
</g>
</svg>
