<?xml version="1.0" encoding="utf-8"?>
<!-- Generator: Adobe Illustrator 16.0.0, SVG Export Plug-In . SVG Version: 6.00 Build 0)  -->
<!DOCTYPE svg PUBLIC "-//W3C//DTD SVG 1.1//EN" "http://www.w3.org/Graphics/SVG/1.1/DTD/svg11.dtd">
<svg version="1.1" id="Layer_1" xmlns="http://www.w3.org/2000/svg" xmlns:xlink="http://www.w3.org/1999/xlink" x="0px" y="0px"
	 width="500px" height="235px" viewBox="0 0 500 235" enable-background="new 0 0 500 235" xml:space="preserve">
<g>
	<path d="M163.5,234.984c0,0,77-32.5,94.5-88c4.219-13.379,8.139-34.027,11.625-44.25c1.938-5.68,4.925-5.411,4.925-5.411
		s1.783,0.285,2.45,2.536c0.796,2.686,0.729,2.485,9,33.625c0,0,14.667,60.834,32.5,76c17.225,14.646,56.5,26,58,25.5"/>
	<path d="M281.5,102.833c0,0-3,1,9,28.5L281.5,102.833z"/>
	<path d="M296.5,153.333c0,0,4,11.5,13,28L296.5,153.333z"/>
	<path d="M293.58,133.684c0.482,1.588,7.556,22.703,23.34,42.799L293.58,133.684z"/>
	<path d="M270.875,96.333c0,0,4-5.958,9,0.042c0,0-2.25-1.666-4.333-1.75S270.875,96.333,270.875,96.333z"/>
	<path d="M265.5,103.833c0,0-8.167,22.75-9.667,33.75L265.5,103.833z"/>
	<path d="M252.5,145.333c0,0-1,9-19.883,29.069L252.5,145.333z"/>
	<path d="M256.5,117.333c0.125-0.25,4-14.125,5.75-15.625S256.5,117.333,256.5,117.333z"/>
	<path d="M315.667,196.333c0,0,10.166,15.667,30.666,23C330,209.333,325.5,205.499,322,201.666S315.667,196.333,315.667,196.333z"/>
</g>
<g>
	<g>
		<g>
			<g>
				<defs>
					<path id="SVGID_1_" d="M163.5,234.984c0,0,77-32.5,94.5-88c4.219-13.379,8.139-34.027,11.625-44.25
						c1.938-5.68,4.925-5.411,4.925-5.411s1.783,0.285,2.45,2.536c0.796,2.686,0.729,2.485,9,33.625c0,0,14.667,60.834,32.5,76
						c17.225,14.646,56.5,26,58,25.5"/>
				</defs>
				<clipPath id="SVGID_2_">
					<use xlink:href="#SVGID_1_"  overflow="visible"/>
				</clipPath>
				<g clip-path="url(#SVGID_2_)">
					<polygon fill="#FFFFFF" points="236.902,236.333 188.777,221.26 195.354,200.266 260.723,220.738 255.838,236.333 					"/>
					<text transform="matrix(0.9543 0.2989 -0.2989 0.9543 207.8818 219.9395)" font-family="'MyriadPro-Regular'" font-size="12">Privacy</text>
				</g>
			</g>
		</g>
	</g>
	<g>
		<g>
			<g>
				<defs>
					<path id="SVGID_3_" d="M163.5,234.984c0,0,77-32.5,94.5-88c4.219-13.379,8.139-34.027,11.625-44.25
						c1.938-5.68,4.925-5.411,4.925-5.411s1.783,0.285,2.45,2.536c0.796,2.686,0.729,2.485,9,33.625c0,0,14.667,60.834,32.5,76
						c17.225,14.646,56.5,26,58,25.5"/>
				</defs>
				<clipPath id="SVGID_4_">
					<use xlink:href="#SVGID_3_"  overflow="visible"/>
				</clipPath>
				<g clip-path="url(#SVGID_4_)">
					<polyline fill="#FFFFFF" points="312.878,205.109 236.402,215.846 233.699,196.587 303.472,186.794 324.537,203.475 					"/>
					<text transform="matrix(0.9903 -0.139 0.139 0.9903 246.5703 208.1533)" font-family="'MyriadPro-Regular'" font-size="12">Transparency</text>
				</g>
			</g>
		</g>
	</g>
</g>
<rect x="153.5" y="35" fill="#FFFFFF" width="47" height="60"/>
<path fill="#475993" d="M200.798,24.135h-54.771c-5.579,0-10.104,4.523-10.104,10.104v54.77c0,5.58,4.522,10.104,10.104,10.104
	h27.013l0.046-26.792h-6.961c-0.904,0-1.639-0.731-1.643-1.636l-0.032-8.637c-0.005-0.91,0.731-1.648,1.643-1.648h6.947v-8.346
	c0-9.684,5.915-14.957,14.554-14.957h7.09c0.906,0,1.644,0.735,1.644,1.643v7.282c0,0.906-0.735,1.642-1.644,1.643l-4.351,0.002
	c-4.698,0-5.606,2.232-5.606,5.509v7.225h10.322c0.983,0,1.747,0.858,1.631,1.836l-1.021,8.636c-0.1,0.826-0.801,1.449-1.633,1.449
	h-9.254l-0.045,26.792h16.071c5.58,0,10.104-4.523,10.104-10.104V34.24C210.902,28.659,206.378,24.135,200.798,24.135z"/>
<g>
	<g>
		<path fill="#A66D30" d="M197.073,127.018l-52.612-95.249c-1.832-3.301-5.654-4.634-8.961-2.811
			c-3.301,1.832,4.05,22.46,5.876,25.757l43.679,78.944l9.121,1.26L197.073,127.018z"/>
		<path fill="#D9A13F" d="M197.073,127.018l-12.021,6.645l-1.475,0.82c-2.312,1.279-3.153,4.217-1.876,6.524l3.57,6.455l14.277,1.55
			l9.088-14.476l-3.574-6.457c-1.275-2.312-4.213-3.154-6.521-1.875L197.073,127.018z"/>
		<path fill="#F5DF87" d="M222.52,134.083l3.668,4.92l3.584,4.804l3.77,5.055l25.061,33.592c2.07,2.779,0.73,6.812-2.104,8.385
			l-48.94,27.078c-2.838,1.564-6.968,0.562-8.223-2.674l-15.143-39.066l-6.666-17.201c-1.258-3.229-0.731-6.813,2.103-8.383
			l34.667-19.182C217.135,129.843,220.438,131.298,222.52,134.083z"/>
		<path fill="#FF698F" d="M226.189,139.003l-46.441,25.703l4.441,11.467l49.354-27.312L226.189,139.003z"/>
		<path fill="#A66D30" d="M181.704,141.007l3.571,6.455l4.533-2.508l-3.572-6.457c-0.831-1.504-0.77-3.265,0.015-4.666
			c0.429-0.763,1.058-1.412,1.864-1.856l-3.061,1.688l-1.477,0.82C181.271,135.762,180.427,138.695,181.704,141.007z"/>
		<path fill="#6E3E0B" d="M132.443,38.41l52.61,95.249l3.061-1.685l1.517-0.85L137.02,35.877c-1.379-2.491-1.027-5.499,0.652-7.607
			c-0.869,0.102-1.732,0.368-2.547,0.812C131.825,30.916,130.618,35.112,132.443,38.41z"/>
		<path fill="#D9A13F" d="M184.189,176.173l15.144,39.068c1.255,3.231,5.384,4.237,8.219,2.67l6.574-3.638
			c-2.836,1.566-6.962,0.562-8.22-2.672l-15.148-39.069L184.189,176.173z"/>
		<path fill="#CF4B82" d="M179.749,164.706l4.442,11.467l6.564-3.639l-4.441-11.468L179.749,164.706z"/>
		<path fill="#D9A13F" d="M177.521,158.973l2.227,5.733l6.564-3.642l-2.221-5.725c-1.131-2.918-0.814-6.115,1.332-7.863
			c0.227-0.188,0.475-0.358,0.75-0.506l-0.898,0.488l-5.649,3.127C176.79,152.157,176.268,155.736,177.521,158.973z"/>
	</g>
	<path fill="#D9A13F" d="M224.418,185.874l9.615,17.387l-4.018,2.224l-0.003-0.002l-9.614-17.387
		c-0.613-1.109-0.211-2.509,0.896-3.121C222.408,184.359,223.805,184.762,224.418,185.874z"/>
	<path fill="#D9A13F" d="M230.368,171.753l16.839,23.832c0.068,0.097,0.127,0.19,0.174,0.291l-4.016,2.222l-16.748-23.693
		c-0.73-1.033-0.482-2.467,0.552-3.197S229.637,170.718,230.368,171.753z"/>
	<path fill="#D9A13F" d="M210.137,183.622l11.146,26.692l-4.026,2.229c-0.043-0.07-0.083-0.146-0.114-0.229l-11.244-26.926
		c-0.486-1.173,0.064-2.517,1.235-3.002C208.303,181.896,209.648,182.45,210.137,183.622z"/>
</g>
<g>
	<path fill="#FFFFFF" d="M168.125,103.874c0,0,7.875-3.25,8.25-3.375s-2-5.375-2-5.375l-0.625-6.375l4.375-2.125l6,6.875l6.75,5.25
		l3.5-0.25l5.25,10.25l4.625,0.75c0,0,1.625,3.25,1.5,3.625s-8.25,3.75-8.25,3.75s-8.125,6.125-8.5,6.25s-7.625,1.5-7.75,1.875
		s-5.125-1.875-5.125-1.875l-3.375-5.25l-2-5.875l-2.75-3L168.125,103.874z"/>
	<path fill="#475993" stroke="#FFFFFF" stroke-miterlimit="10" d="M168.686,113.723c0.388,1.234,1.056,2.296,2,3.179
		c0.059,0.353,0.143,0.705,0.252,1.059c0.506,1.619,1.437,2.896,2.785,3.83c0.683,2.236,1.916,3.783,3.699,4.643
		c1.784,0.86,3.809,0.938,6.069,0.229l0.866-0.271l2.238-0.701c1.54-0.482,3.004-1.142,4.393-1.967
		c1.387-0.832,2.959-1.9,4.717-3.209c1.661-1.228,2.667-1.896,3.02-2.002l6.934-2.173c0.85-0.268,1.48-0.796,1.896-1.586
		c0.412-0.789,0.485-1.609,0.221-2.461l-4.821-15.402c-0.267-0.85-0.795-1.481-1.584-1.895c-0.79-0.414-1.61-0.488-2.46-0.222
		l-6.596,2.063c-0.697-0.203-2.187-1.104-4.465-2.697c-1.308-0.913-2.486-1.671-3.539-2.275c-0.512-0.28-1.012-0.877-1.5-1.79
		c-0.487-0.913-1.051-1.852-1.688-2.814c-0.636-0.963-1.405-1.675-2.307-2.132c-0.812-0.398-1.627-0.469-2.444-0.213
		c-1.349,0.421-2.478,1.062-3.39,1.92c-0.911,0.857-1.476,1.928-1.689,3.211c-0.214,1.283-0.027,2.863,0.561,4.741
		c0.467,1.492,1.334,2.911,2.602,4.259l-4.236,1.326c-1.669,0.522-2.922,1.583-3.76,3.185c-0.837,1.603-0.997,3.229-0.479,4.882
		c0.445,1.428,1.248,2.611,2.405,3.554C168.402,112.567,168.505,113.146,168.686,113.723z M201.127,112.685
		c-0.131-0.418-0.09-0.827,0.119-1.228c0.209-0.399,0.523-0.665,0.939-0.796c0.418-0.131,0.825-0.091,1.227,0.117
		c0.4,0.211,0.666,0.523,0.796,0.941c0.131,0.417,0.091,0.826-0.118,1.225c-0.21,0.402-0.523,0.667-0.939,0.797
		c-0.418,0.132-0.826,0.092-1.227-0.117C201.525,113.414,201.258,113.102,201.127,112.685z M169.062,107.501
		c-0.256-0.82-0.168-1.635,0.265-2.448c0.433-0.815,1.05-1.347,1.853-1.598l8.473-2.651c-0.293-0.932-1.076-2.09-2.356-3.479
		c-1.278-1.387-2.067-2.554-2.364-3.5c-0.492-1.572-0.601-2.816-0.322-3.73c0.277-0.916,1.188-1.613,2.727-2.096
		c0.548,0.287,1.066,0.873,1.557,1.76c0.487,0.886,1.047,1.816,1.68,2.791c0.631,0.973,1.383,1.703,2.257,2.187
		c0.468,0.259,1.313,0.796,2.539,1.61c0.089,0.06,0.349,0.243,0.778,0.548c0.431,0.306,0.785,0.557,1.066,0.751
		c0.28,0.192,0.664,0.447,1.151,0.762c0.485,0.314,0.917,0.566,1.294,0.758c0.377,0.189,0.775,0.378,1.193,0.564
		c0.42,0.186,0.809,0.303,1.168,0.348c0.355,0.047,0.664,0.031,0.922-0.05l0.77-0.241l4.821,15.401l-0.771,0.241
		c-0.208,0.066-0.454,0.169-0.735,0.311c-0.28,0.14-0.528,0.275-0.744,0.404c-0.217,0.129-0.492,0.312-0.832,0.551
		c-0.342,0.239-0.592,0.418-0.758,0.541c-0.163,0.121-0.418,0.312-0.76,0.568c-0.343,0.256-0.549,0.414-0.619,0.471
		c-3.02,2.229-5.578,3.676-7.682,4.334l-2.91,0.912c-3.082,0.965-5.041,0.104-5.88-2.572c-0.131-0.418-0.231-0.881-0.302-1.389
		c-0.562-0.104-1.075-0.406-1.539-0.902c-0.464-0.499-0.789-1.045-0.975-1.639c-0.188-0.594-0.215-1.191-0.086-1.795
		c-1.104-0.537-1.826-1.357-2.172-2.465c-0.125-0.402-0.187-0.871-0.179-1.41c0.007-0.54,0.088-0.984,0.244-1.332
		c-0.521,0.145-1.065-0.098-1.644-0.728C169.614,108.657,169.239,108.062,169.062,107.501z"/>
</g>
<g>
	<path fill="#FFFFFF" d="M160.521,45.118c0,0-8.16,2.448-8.529,2.587c-0.37,0.14-1.84-5.432-1.84-5.432l-3.538-5.34l-4.735,1.112
		l-0.316,9.12l-1.924,8.332l-2.873,2.015l2.396,11.264l-3.115,3.5c0,0,0.79,3.547,1.124,3.759c0.333,0.212,8.769-2.296,8.769-2.296
		s10.168-0.375,10.537-0.515s6.861-3.647,7.194-3.436c0.334,0.212,2.793-4.688,2.793-4.688l-0.692-6.203l-2.156-5.82l0.24-4.062
		L160.521,45.118z"/>
	<path fill="#475993" stroke="#FFFFFF" stroke-miterlimit="10" d="M165.446,51.58c0.304-1.462,0.179-2.887-0.376-4.276
		c-0.641-1.608-1.791-2.769-3.451-3.485c-1.66-0.714-3.303-0.746-4.928-0.098l-4.123,1.645c0.134-1.845-0.09-3.494-0.668-4.946
		c-0.729-1.829-1.582-3.171-2.56-4.031c-0.976-0.859-2.088-1.334-3.337-1.425c-1.25-0.09-2.529,0.126-3.841,0.649
		c-0.797,0.318-1.386,0.887-1.765,1.708c-0.408,0.923-0.557,1.96-0.441,3.109c0.114,1.148,0.271,2.231,0.468,3.248
		c0.197,1.017,0.187,1.795-0.032,2.335c-0.436,1.132-0.873,2.465-1.311,3.999c-0.762,2.674-1.35,4.312-1.762,4.91l-6.42,2.56
		c-0.825,0.33-1.416,0.905-1.77,1.724c-0.351,0.819-0.361,1.642-0.033,2.47l5.979,14.991c0.331,0.829,0.905,1.418,1.724,1.771
		c0.82,0.351,1.643,0.362,2.471,0.033l6.746-2.69c0.345-0.137,1.545-0.255,3.606-0.353c2.188-0.094,4.083-0.257,5.685-0.487
		c1.601-0.233,3.148-0.647,4.647-1.245l2.179-0.868l0.844-0.336c2.201-0.878,3.725-2.215,4.564-4.007
		c0.842-1.792,0.823-3.771-0.061-5.937c0.459-1.576,0.373-3.152-0.256-4.729c-0.139-0.344-0.293-0.67-0.473-0.98
		c0.178-1.282,0.023-2.526-0.454-3.728C166.077,52.55,165.792,52.038,165.446,51.58z M140.453,74.009
		c-0.178,0.415-0.471,0.704-0.876,0.865c-0.406,0.162-0.816,0.154-1.231-0.025c-0.414-0.178-0.705-0.47-0.865-0.876
		c-0.164-0.407-0.153-0.817,0.023-1.232c0.18-0.414,0.471-0.703,0.877-0.865s0.816-0.154,1.23,0.024
		c0.416,0.179,0.705,0.471,0.867,0.877C140.641,73.184,140.631,73.594,140.453,74.009z M162.337,50.622
		c-0.05,0.852-0.321,1.386-0.815,1.601c0.34,0.172,0.686,0.465,1.03,0.879c0.347,0.414,0.595,0.815,0.753,1.207
		c0.43,1.077,0.385,2.17-0.131,3.281c0.48,0.387,0.835,0.87,1.066,1.448c0.229,0.578,0.322,1.206,0.277,1.886
		c-0.048,0.678-0.252,1.236-0.623,1.672c0.266,0.438,0.479,0.86,0.641,1.267c1.04,2.607,0.062,4.511-2.938,5.706l-2.834,1.129
		c-2.048,0.816-4.942,1.312-8.693,1.486c-0.09,0-0.35,0.008-0.777,0.024c-0.427,0.018-0.744,0.03-0.949,0.039
		c-0.205,0.009-0.513,0.029-0.928,0.058c-0.413,0.03-0.745,0.062-0.993,0.098c-0.249,0.036-0.526,0.088-0.833,0.157
		c-0.309,0.068-0.562,0.143-0.766,0.223l-0.75,0.298l-5.979-14.99l0.75-0.299c0.25-0.1,0.499-0.281,0.747-0.542
		c0.249-0.262,0.477-0.597,0.686-1.006c0.207-0.41,0.396-0.807,0.57-1.192c0.172-0.386,0.346-0.854,0.525-1.404
		c0.179-0.551,0.316-0.991,0.412-1.318c0.095-0.328,0.213-0.747,0.354-1.255c0.144-0.508,0.229-0.814,0.26-0.917
		c0.437-1.405,0.752-2.355,0.953-2.851c0.373-0.926,0.496-1.967,0.371-3.12c-0.125-1.155-0.277-2.23-0.459-3.225
		c-0.179-0.996-0.146-1.778,0.098-2.347c1.498-0.598,2.646-0.63,3.438-0.094c0.793,0.534,1.494,1.567,2.104,3.097
		c0.367,0.921,0.492,2.324,0.375,4.208c-0.117,1.885,0.005,3.279,0.365,4.185l8.245-3.289c0.781-0.311,1.597-0.289,2.445,0.07
		c0.849,0.358,1.433,0.935,1.75,1.732C162.301,49.069,162.385,49.768,162.337,50.622z"/>
</g>
</svg>
