<?xml version="1.0" encoding="utf-8"?>
<!-- Generator: Adobe Illustrator 16.0.0, SVG Export Plug-In . SVG Version: 6.00 Build 0)  -->
<!DOCTYPE svg PUBLIC "-//W3C//DTD SVG 1.1//EN" "http://www.w3.org/Graphics/SVG/1.1/DTD/svg11.dtd">
<svg version="1.1" id="Layer_1" xmlns="http://www.w3.org/2000/svg" xmlns:xlink="http://www.w3.org/1999/xlink" x="0px" y="0px"
	 width="500px" height="300px" viewBox="0 0 500 300" enable-background="new 0 0 500 300" xml:space="preserve">
<g>
	<g>
		<g>
			<path d="M156.844,87.673c-0.471-1.371-5.181-15.013-10.191-28.365c-3.098-8.255-5.708-14.797-7.755-19.443
				c-1.263-2.867-2.299-4.984-3.165-6.478c-0.754-1.3-2.522-4.344-5.352-3.377c-0.207,0.07-0.405,0.163-0.592,0.274
				c-1.628,0.959-2.353,2.739-2.345,10.732c0.006,4.967,0.332,11.362,0.92,18.009c0.7,7.909,2.792,27.308,7.088,36.642
				c2.819,6.126,6.145,6.479,8.438,5.695l0.133-0.047c1.073-0.398,1.928-0.706,2.614-0.94c0.793-0.271,1.292-0.422,1.871-0.597
				c0.077-0.023,0.155-0.045,0.238-0.071c1.346,4.568,2.718,11.068,4.051,17.391c1.942,9.2,3.948,18.712,6.175,23.988
				c2.66,6.302,7.812,7.101,11.417,5.869c2.54-0.867,4.764-2.835,5.949-5.264c1.075-2.205,1.24-4.648,0.464-6.883
				C174.506,128.195,158.05,90.445,156.844,87.673z M171.128,139.149c-0.516,1.058-1.517,1.946-2.614,2.32
				c-1.79,0.612-3.205-0.275-4.201-2.638c-2.01-4.762-3.958-13.997-5.844-22.93c-1.739-8.241-3.381-16.026-5.14-20.839
				c-0.542-1.482-2.168-2.258-3.659-1.749c-1.407,0.48-6.866,2.949-7.382,2.46c-1.347-1.121-4.818-8.055-7.356-29.565
				c-1.161-9.844-1.657-18.859-1.692-24.83c4.425,9.953,11.814,29.81,18.159,48.289c0.025,0.075,0.054,0.147,0.084,0.217
				c0.175,0.402,17.583,40.317,19.843,46.828C171.599,137.497,171.533,138.318,171.128,139.149z"/>
		</g>
	</g>
	<g>
		<g>
			<path d="M368.095,61.283c0.496-1.763,1.156-4.323,1.993-7.563c1.273-4.951,3.387-12.973,5.188-19.375
				c0.435-1.542-0.463-3.142-2.002-3.576c-1.545-0.434-3.145,0.464-3.577,2.004c-1.818,6.465-3.94,14.521-5.222,19.499
				c-0.227,0.871-0.439,1.707-0.646,2.498l-2.882-0.766l5.916-21.02c0.434-1.541-0.465-3.142-2.004-3.576
				c-1.543-0.434-3.144,0.464-3.576,2.005l-5.939,21.103l-2.615-0.695l5.951-21.142c0.434-1.54-0.468-3.142-2.007-3.575
				c-1.541-0.435-3.144,0.463-3.577,2.004l-5.975,21.223l-2.497-0.664l6.427-22.834c0.434-1.541-0.464-3.143-2.003-3.577
				c-1.544-0.434-3.144,0.465-3.577,2.006l-7.637,27.137c-1.908,6.771,1.753,12.794,9.413,15.933l-4.5,15.984
				c-0.81-0.211-1.257-0.324-1.304-0.336c-1.359-0.34-2.771,0.343-3.348,1.623c-3.806,8.453-14.396,35.275-17.347,46.64
				c-1.823,7.02,1.915,11.444,6.427,12.713c4.803,1.353,11.146-0.695,13.018-6.364c2.149-6.504,8.271-34.917,10.349-45.141
				c0.378-1.863,0.66-3.25,0.81-3.961c0.312-1.491-0.582-2.974-2.05-3.387c-0.331-0.093-0.647-0.183-0.961-0.268l4.498-15.976
				C360.29,70.724,366.65,66.416,368.095,61.283z M334.689,136.772c-0.773,2.34-3.695,3.235-5.94,2.604
				c-2.354-0.664-3.183-2.627-2.39-5.68c2.504-9.63,11.58-33.34,16.033-43.48c0.75,0.199,1.67,0.448,2.741,0.743
				c-0.084,0.412-0.175,0.858-0.272,1.333C342.982,101.549,336.73,130.595,334.689,136.772z M351.725,63.75
				c-2.233-0.63-9.035-3.011-8.554-8.471l19.093,5.072C361.025,62.818,356.75,65.165,351.725,63.75z"/>
		</g>
	</g>
	<path fill="#475993" d="M281.73,54.867h-65.393c-6.662,0-12.063,5.4-12.063,12.062v65.39c0,6.662,5.401,12.062,12.063,12.062h32.25
		l0.055-31.986h-8.311c-1.08,0-1.957-0.874-1.96-1.953l-0.04-10.312c-0.004-1.087,0.875-1.968,1.961-1.968h8.294v-9.964
		c0-11.561,7.062-17.857,17.376-17.857h8.465c1.082,0,1.961,0.878,1.961,1.961v8.694c0,1.082-0.879,1.96-1.961,1.961l-5.193,0.002
		c-5.609,0-6.693,2.665-6.693,6.577v8.625h12.323c1.176,0,2.088,1.025,1.946,2.192l-1.222,10.311
		c-0.116,0.986-0.954,1.73-1.946,1.73h-11.049l-0.054,31.986h19.188c6.662,0,12.062-5.4,12.062-12.062v-65.39
		C293.794,60.267,288.393,54.867,281.73,54.867z"/>
	<g>
		<path fill="#FFFFFF" d="M145.325,114.938c0,0,9.402-3.88,9.85-4.029c0.448-0.149-2.388-6.417-2.388-6.417l-0.747-7.611
			l5.224-2.537l7.164,8.208l8.059,6.268l4.179-0.298l6.268,12.237l5.522,0.896c0,0,1.94,3.88,1.791,4.328
			c-0.149,0.448-9.85,4.477-9.85,4.477s-9.701,7.313-10.148,7.462s-9.104,1.791-9.253,2.238c-0.149,0.448-6.119-2.238-6.119-2.238
			l-4.03-6.269l-2.388-7.014l-3.283-3.582L145.325,114.938z"/>
		<path fill="#475993" stroke="#FFFFFF" stroke-miterlimit="10" d="M145.994,126.697c0.461,1.474,1.259,2.74,2.387,3.794
			c0.069,0.422,0.169,0.842,0.301,1.264c0.606,1.933,1.714,3.458,3.325,4.573c0.814,2.67,2.288,4.517,4.417,5.543
			c2.129,1.025,4.546,1.117,7.246,0.272l1.035-0.324l2.672-0.837c1.839-0.576,3.586-1.359,5.243-2.349
			c1.657-0.993,3.533-2.269,5.632-3.831c1.983-1.462,3.184-2.259,3.606-2.39l8.276-2.59c1.015-0.32,1.768-0.949,2.262-1.894
			c0.494-0.942,0.581-1.922,0.263-2.938l-5.756-18.389c-0.318-1.014-0.949-1.769-1.892-2.262c-0.942-0.495-1.921-0.583-2.937-0.265
			l-7.874,2.463c-0.834-0.242-2.611-1.317-5.331-3.22c-1.562-1.09-2.971-1.995-4.226-2.717c-0.61-0.334-1.207-1.047-1.791-2.137
			c-0.582-1.09-1.253-2.21-2.014-3.36c-0.759-1.15-1.677-2-2.752-2.546c-0.969-0.476-1.942-0.561-2.92-0.254
			c-1.608,0.503-2.958,1.268-4.047,2.293c-1.088,1.024-1.761,2.302-2.018,3.833c-0.256,1.532-0.034,3.418,0.667,5.661
			c0.558,1.782,1.594,3.476,3.107,5.085l-5.058,1.583c-1.993,0.624-3.489,1.89-4.489,3.802c-0.999,1.914-1.19,3.855-0.572,5.828
			c0.533,1.705,1.49,3.118,2.874,4.244C145.657,125.317,145.779,126.007,145.994,126.697z M184.727,125.457
			c-0.156-0.499-0.107-0.986,0.143-1.464s0.625-0.795,1.123-0.951c0.498-0.156,0.985-0.107,1.463,0.14
			c0.478,0.252,0.795,0.625,0.951,1.124c0.156,0.499,0.108,0.986-0.141,1.462c-0.25,0.48-0.624,0.797-1.123,0.951
			c-0.498,0.159-0.986,0.11-1.463-0.14C185.202,126.329,184.883,125.956,184.727,125.457z M146.443,119.268
			c-0.306-0.979-0.2-1.951,0.316-2.922c0.516-0.974,1.254-1.608,2.212-1.908l10.115-3.166c-0.348-1.112-1.286-2.495-2.814-4.153
			c-1.528-1.655-2.469-3.049-2.824-4.179c-0.587-1.877-0.716-3.362-0.384-4.454c0.331-1.094,1.417-1.926,3.255-2.502
			c0.654,0.343,1.273,1.042,1.858,2.101c0.582,1.058,1.25,2.169,2.004,3.333c0.753,1.161,1.651,2.033,2.695,2.61
			c0.559,0.309,1.569,0.95,3.031,1.923c0.106,0.071,0.416,0.29,0.931,0.654c0.513,0.365,0.938,0.665,1.274,0.897
			c0.333,0.229,0.793,0.534,1.374,0.909c0.581,0.375,1.095,0.676,1.545,0.905c0.45,0.226,0.925,0.451,1.426,0.674
			c0.501,0.222,0.965,0.362,1.392,0.415c0.427,0.056,0.795,0.038,1.101-0.059l0.92-0.288l5.756,18.389l-0.919,0.287
			c-0.25,0.08-0.542,0.203-0.879,0.371c-0.336,0.167-0.632,0.329-0.89,0.482c-0.257,0.154-0.588,0.373-0.992,0.658
			c-0.406,0.287-0.707,0.499-0.903,0.646c-0.197,0.145-0.499,0.373-0.909,0.678c-0.408,0.306-0.654,0.495-0.737,0.562
			c-3.605,2.666-6.662,4.389-9.172,5.174l-3.476,1.089c-3.678,1.152-6.018,0.126-7.02-3.07c-0.156-0.499-0.277-1.05-0.36-1.656
			c-0.671-0.126-1.283-0.487-1.837-1.08c-0.554-0.594-0.941-1.248-1.164-1.956c-0.221-0.709-0.257-1.422-0.103-2.143
			c-1.316-0.642-2.179-1.621-2.592-2.943c-0.15-0.48-0.222-1.04-0.213-1.684c0.008-0.644,0.105-1.175,0.292-1.59
			c-0.62,0.172-1.273-0.117-1.96-0.868C147.103,120.648,146.655,119.937,146.443,119.268z"/>
	</g>
	<g>
		<path fill="#FFFFFF" d="M357.673,114.938c0,0-9.401-3.88-9.85-4.029c-0.447-0.149,2.388-6.417,2.388-6.417l0.746-7.611
			l-5.223-2.537l-7.164,8.208l-8.06,6.268l-4.179-0.298l-6.27,12.237l-5.521,0.896c0,0-1.94,3.88-1.791,4.328
			c0.149,0.448,9.851,4.477,9.851,4.477s9.7,7.313,10.147,7.462c0.448,0.149,9.104,1.791,9.253,2.238
			c0.148,0.448,6.119-2.238,6.119-2.238l4.029-6.269l2.388-7.014l3.283-3.582L357.673,114.938z"/>
		<path fill="#475993" stroke="#FFFFFF" stroke-miterlimit="10" d="M357.365,124.634c1.383-1.126,2.339-2.54,2.873-4.244
			c0.617-1.973,0.427-3.915-0.571-5.828c-1-1.912-2.497-3.178-4.489-3.802l-5.058-1.583c1.514-1.609,2.549-3.303,3.106-5.085
			c0.701-2.242,0.922-4.128,0.668-5.661c-0.259-1.532-0.931-2.81-2.02-3.833c-1.089-1.025-2.438-1.79-4.046-2.293
			c-0.978-0.306-1.951-0.221-2.919,0.254c-1.075,0.545-1.994,1.396-2.754,2.546c-0.762,1.149-1.43,2.27-2.014,3.36
			c-0.582,1.09-1.18,1.803-1.791,2.137c-1.255,0.722-2.664,1.626-4.226,2.717c-2.722,1.903-4.498,2.978-5.33,3.22l-7.875-2.463
			c-1.015-0.318-1.994-0.23-2.937,0.265c-0.943,0.493-1.573,1.248-1.894,2.262l-5.756,18.389c-0.315,1.017-0.229,1.996,0.265,2.938
			c0.493,0.944,1.247,1.574,2.262,1.894l8.275,2.59c0.422,0.131,1.623,0.928,3.605,2.39c2.099,1.562,3.976,2.838,5.631,3.831
			c1.658,0.989,3.404,1.772,5.244,2.349l2.673,0.837l1.032,0.324c2.701,0.845,5.119,0.753,7.248-0.272
			c2.129-1.026,3.603-2.873,4.416-5.543c1.611-1.115,2.72-2.64,3.326-4.573c0.133-0.422,0.232-0.842,0.301-1.264
			c1.129-1.054,1.926-2.32,2.388-3.794C357.219,126.007,357.34,125.317,357.365,124.634z M317.316,126.578
			c-0.476,0.25-0.965,0.299-1.461,0.14c-0.5-0.154-0.873-0.471-1.125-0.951c-0.248-0.476-0.295-0.963-0.14-1.462
			c0.156-0.499,0.474-0.872,0.951-1.124c0.479-0.247,0.966-0.296,1.462-0.14c0.499,0.156,0.875,0.473,1.124,0.951
			c0.25,0.478,0.299,0.965,0.144,1.464C318.115,125.955,317.796,126.329,317.316,126.578z M355.206,121.404
			c-0.688,0.751-1.341,1.04-1.959,0.868c0.185,0.415,0.282,0.947,0.292,1.59c0.007,0.644-0.062,1.203-0.215,1.684
			c-0.413,1.322-1.275,2.301-2.592,2.943c0.154,0.721,0.117,1.434-0.104,2.143c-0.222,0.708-0.609,1.362-1.164,1.956
			c-0.553,0.592-1.166,0.954-1.835,1.08c-0.084,0.606-0.205,1.157-0.36,1.656c-1.002,3.196-3.343,4.223-7.021,3.07l-3.478-1.089
			c-2.508-0.785-5.565-2.509-9.17-5.174c-0.084-0.067-0.33-0.256-0.737-0.562c-0.41-0.305-0.714-0.534-0.909-0.678
			c-0.196-0.147-0.497-0.359-0.902-0.646c-0.406-0.285-0.736-0.504-0.992-0.658c-0.258-0.154-0.554-0.315-0.89-0.482
			c-0.338-0.168-0.63-0.292-0.879-0.371l-0.919-0.287l5.755-18.389l0.921,0.288c0.307,0.097,0.674,0.115,1.102,0.059
			c0.427-0.053,0.891-0.193,1.393-0.415c0.501-0.223,0.975-0.448,1.425-0.674c0.45-0.229,0.966-0.529,1.546-0.905
			c0.58-0.375,1.04-0.68,1.373-0.909c0.336-0.232,0.762-0.532,1.273-0.897c0.516-0.364,0.824-0.583,0.931-0.654
			c1.462-0.973,2.474-1.614,3.031-1.923c1.045-0.577,1.942-1.449,2.694-2.61c0.754-1.164,1.424-2.275,2.004-3.333
			c0.586-1.059,1.203-1.758,1.858-2.101c1.837,0.576,2.925,1.408,3.255,2.502c0.332,1.091,0.203,2.577-0.385,4.454
			c-0.354,1.13-1.297,2.523-2.824,4.179c-1.526,1.658-2.465,3.041-2.813,4.153l10.116,3.166c0.957,0.3,1.695,0.934,2.213,1.908
			c0.516,0.971,0.619,1.943,0.313,2.922C356.344,119.937,355.895,120.648,355.206,121.404z"/>
	</g>
</g>
<g>
	<g>
		<path fill="#92A9D6" d="M323.805,244.868c0.534,3.565,0.818,7.21,0.818,10.927c-48.123,11.547-98.294,11.547-146.417,0
			c0-3.717,0.281-7.359,0.819-10.927c-7.945,4.274-12.53,8.737-12.53,12.389c0,10.513,38.021,19.038,84.919,19.038
			c46.898,0,84.92-8.525,84.92-19.038C336.334,253.605,331.75,249.143,323.805,244.868z"/>
		<path fill="#475993" d="M251.414,277.757c-41.876,0-86.385-7.181-86.385-20.5c0-5.388,7.232-10.414,13.297-13.685l2.573-1.389
			l-0.429,2.896c-0.477,3.161-0.738,6.372-0.791,9.557c46.951,11.078,96.512,11.078,143.467,0c-0.055-3.185-0.314-6.396-0.791-9.557
			l-0.432-2.896l2.574,1.389c6.066,3.271,13.301,8.297,13.301,13.685C337.801,270.576,293.292,277.757,251.414,277.757z
			 M177.195,247.589c-5.835,3.511-9.238,7.043-9.238,9.668c0,8.313,34.276,17.57,83.457,17.57c49.182,0,83.458-9.257,83.458-17.57
			c0-2.625-3.402-6.157-9.236-9.668c0.298,2.734,0.452,5.479,0.452,8.206v1.159l-1.122,0.264c-48.12,11.546-98.982,11.546-147.1,0
			l-1.124-0.27v-1.158C176.742,253.068,176.896,250.323,177.195,247.589z"/>
	</g>
	<g>
		<path fill="#92A9D6" d="M178.207,255.795c0-40.432,32.776-73.208,73.208-73.208c40.433,0,73.209,32.776,73.209,73.208l0,0
			C276.5,267.342,226.329,267.342,178.207,255.795L178.207,255.795z"/>
		<path fill="#475993" d="M251.414,265.879c-24.745,0-49.491-2.884-73.55-8.661l-1.122-0.27v-1.158
			c0-41.174,33.499-74.671,74.672-74.671c41.174,0,74.674,33.503,74.674,74.676v1.159l-1.122,0.264
			C300.906,262.995,276.16,265.879,251.414,265.879z M179.681,254.639c46.955,11.084,96.512,11.084,143.469,0
			c-0.623-39.027-32.562-70.59-71.735-70.59C212.243,184.049,180.302,215.611,179.681,254.639z"/>
	</g>
	<path fill="#E6E6E6" d="M219.369,176.732c-0.749,0-1.5-0.287-2.069-0.861c-5.255-5.255-5.255-13.812,0-19.066
		c1.442-1.443,2.237-3.355,2.237-5.396c0-2.038-0.792-3.951-2.237-5.394c-1.145-1.143-1.145-2.993,0-4.141
		c1.144-1.144,2.998-1.144,4.141,0c2.549,2.548,3.952,5.934,3.952,9.534c0,3.604-1.4,6.99-3.952,9.537
		c-2.972,2.975-2.972,7.812,0,10.787c1.145,1.146,1.145,2.996,0,4.139C220.867,176.445,220.117,176.732,219.369,176.732z"/>
	<path fill="#E6E6E6" d="M279.792,176.732c-0.748,0-1.499-0.287-2.069-0.861c-5.255-5.255-5.255-13.812,0-19.066
		c1.439-1.443,2.237-3.355,2.237-5.396c0-2.038-0.795-3.951-2.237-5.394c-1.146-1.143-1.146-2.993,0-4.141
		c1.145-1.144,2.995-1.144,4.139,0c2.549,2.548,3.955,5.934,3.955,9.534c0,3.604-1.399,6.99-3.955,9.537
		c-2.969,2.975-2.969,7.812,0,10.787c1.148,1.146,1.148,2.994,0,4.139C281.287,176.445,280.541,176.732,279.792,176.732z"/>
	<path fill="#E6E6E6" d="M246.582,159.16c-0.748,0-1.501-0.286-2.073-0.857c-5.254-5.256-5.254-13.812,0-19.069
		c1.44-1.441,2.238-3.354,2.238-5.396c0-2.036-0.795-3.952-2.238-5.394c-1.142-1.142-1.142-2.994,0-4.139
		c1.147-1.144,2.996-1.144,4.144,0c2.547,2.549,3.949,5.934,3.949,9.533c0,3.604-1.398,6.99-3.949,9.538
		c-2.971,2.976-2.971,7.812,0,10.787c1.146,1.146,1.146,2.994,0,4.14C248.079,158.874,247.328,159.16,246.582,159.16z"/>
	<path fill="#475993" d="M264.438,184.676l-2.416-0.365c-7.012-1.059-14.203-1.059-21.209,0l-2.416,0.365l-0.79-2.314
		c-0.557-1.633-0.83-3.168-0.83-4.704c0-8.07,6.569-14.638,14.641-14.638c8.073,0,14.646,6.566,14.646,14.638
		c0,1.536-0.272,3.073-0.832,4.704L264.438,184.676z M251.414,177.656c2.917,0,5.857,0.173,8.768,0.507
		c0.012-0.169,0.02-0.337,0.02-0.507c0-4.842-3.943-8.785-8.786-8.785c-4.842,0-8.784,3.943-8.784,8.785
		c0,0.17,0.006,0.338,0.018,0.507C245.558,177.826,248.498,177.656,251.414,177.656z"/>
	<path fill="#FFFFFF" d="M237.782,198.729c-1.335,0-2.547-0.922-2.853-2.283c-0.358-1.58,0.634-3.145,2.213-3.498
		c4.633-1.047,9.42-1.574,14.23-1.574c1.632,0.126,2.971,1.299,2.966,2.929c0,1.621-1.309,2.929-2.927,2.929l0,0
		c-0.011,0-0.025,0-0.039,0c-4.377,0-8.73,0.48-12.943,1.43C238.214,198.706,237.995,198.729,237.782,198.729z"/>
	<path fill="#FFFFFF" d="M192.852,247.01c-0.177,0-0.352-0.016-0.529-0.049c-1.589-0.293-2.646-1.812-2.356-3.408
		c3.343-18.33,14.44-34.662,29.674-43.691c1.396-0.823,3.187-0.364,4.013,1.027c0.827,1.396,0.366,3.188-1.028,4.01
		c-13.801,8.178-23.857,23.023-26.897,39.711C195.472,246.021,194.241,247.01,192.852,247.01z"/>
</g>
<text transform="matrix(1 0 0 1 220.8623 252.4053)"><tspan x="0" y="0" fill="#FFFFFF" font-family="'SimplonNorm-Bold'" font-size="33.2625">Y</tspan><tspan x="20.157" y="2" fill="#FFFFFF" font-family="'SimplonNorm-Bold'" font-size="33.2625">O</tspan><tspan x="40.646" y="0" fill="#FFFFFF" font-family="'SimplonNorm-Bold'" font-size="33.2625">U</tspan></text>
</svg>
