<?xml version="1.0" encoding="utf-8"?>
<!-- Generator: Adobe Illustrator 16.0.0, SVG Export Plug-In . SVG Version: 6.00 Build 0)  -->
<!DOCTYPE svg PUBLIC "-//W3C//DTD SVG 1.1//EN" "http://www.w3.org/Graphics/SVG/1.1/DTD/svg11.dtd">
<svg version="1.1" id="Layer_1" xmlns="http://www.w3.org/2000/svg" xmlns:xlink="http://www.w3.org/1999/xlink" x="0px" y="0px"
	 width="800px" height="300px" viewBox="0 0 800 300" enable-background="new 0 0 800 300" xml:space="preserve">
<g transform="matrix(1.25 0 0 -1.25 0 45)">
	<g>
		<g>
			<path fill="#99AAB5" d="M415.998-58.038c-5.761,48.667-38.194,69.647-92.869,69.647c-2.6,0-5.079-0.113-7.586-0.207
				c-0.087,0.06-0.154,0.14-0.24,0.207c-31.293,23.473-101.72,15.647-117.36-7.827c-21.707-32.554-7.827-148.667,0-164.307
				c7.82-15.659,31.293-23.473,39.113-15.659c7.834,7.839,0,7.839-7.82,23.473c-5.666,11.345-3.107,39.066,1.7,56.473
				c0.187-1.12,0.454-2.147,0.667-3.241c2.593-19.141,13.287-49.414,13.287-64.961c0-23.767,14.007-27.386,31.293-27.386
				c17.286,0,31.3,3.619,31.3,27.386c0,1.6-0.054,3.081-0.08,4.634c5.047-0.434,10.234-0.72,15.726-0.72
				c3.314,0,6.514,0.106,9.661,0.266c-0.028-1.392-0.087-2.739-0.087-4.18c0-23.767,14.014-27.386,31.294-27.386
				c17.288,0,31.306,3.619,31.306,27.386c0,12,7.947,30.834,13.594,46.547c1.059,2.361,1.941,4.881,2.8,7.447
				c0.78-8.719,1.28-18.047,1.28-28.047c0-3.686,2.981-6.666,6.667-6.666c3.688,0,6.667,2.98,6.667,6.666
				C426.311-104.139,421.164-76.838,415.998-58.038"/>
			<path fill="#66757F" d="M315.31,11.609c0,0,24.334-36.767,4.334-70.1c-20-33.334-52.247-33.334-73.334-33.334
				c-13.334,0-6.667-13.333,0-13.333c9.427,0,55.967-8.073,80.001,40C346.311-25.158,315.31,11.609,315.31,11.609"/>
			<path fill="#292F33" d="M239.644-48.492c0-5.527-4.473-10-10-10c-5.527,0-10,4.473-10,10c0,5.527,4.473,10,10,10
				C235.17-38.491,239.644-42.964,239.644-48.492"/>
		</g>
	</g>
</g>
<g>
	<rect x="361.667" y="205.334" fill="#FFFFFF" width="59" height="82.333"/>
	<path fill="#475993" d="M422.28,195.611h-68.95c-7.024,0-12.719,5.694-12.719,12.719v68.95c0,7.024,5.694,12.719,12.719,12.719
		h34.006l0.058-33.729h-8.763c-1.139,0-2.063-0.921-2.067-2.06l-0.042-10.872c-0.004-1.146,0.923-2.076,2.067-2.076h8.747v-10.505
		c0-12.191,7.446-18.83,18.321-18.83h8.925c1.142,0,2.067,0.926,2.067,2.067v9.168c0,1.142-0.926,2.066-2.066,2.067l-5.477,0.003
		c-5.915,0-7.061,2.811-7.061,6.935v9.095h12.997c1.237,0,2.198,1.082,2.053,2.312l-1.289,10.872
		c-0.123,1.04-1.006,1.824-2.053,1.824h-11.649L402.046,290h20.234c7.024,0,12.719-5.694,12.719-12.719V208.33
		C434.999,201.306,429.305,195.611,422.28,195.611z"/>
</g>
<g>
	<path fill="#FFFFFF" d="M301.619,236.922c0,0,8.518-0.189,8.912-0.171c0.395,0.019,0.074-5.735,0.074-5.735l1.717-6.171
		l4.847-0.403l3.115,8.577l4.401,7.332l3.354,1.029l1.198,11.453l4.042,2.368c0,0,0.343,3.617,0.091,3.922s-9.047,0.521-9.047,0.521
		s-9.788,2.78-10.183,2.762s-7.652-1.353-7.904-1.048s-4.104-3.598-4.104-3.598l-1.253-6.114l0.255-6.2l-1.483-3.791
		L301.619,236.922z"/>
	<path fill="#475993" stroke="#FFFFFF" stroke-miterlimit="10" d="M298.588,246.31c-0.084,1.29,0.155,2.52,0.718,3.685
		c-0.074,0.351-0.122,0.708-0.146,1.079c-0.111,1.692,0.293,3.219,1.216,4.576c-0.171,2.332,0.422,4.22,1.775,5.665
		c1.354,1.444,3.214,2.246,5.578,2.402l0.906,0.061l2.34,0.152c1.61,0.106,3.212,0.021,4.805-0.249
		c1.595-0.275,3.446-0.705,5.557-1.291c1.992-0.543,3.17-0.803,3.54-0.777l7.248,0.478c0.889,0.057,1.667-0.208,2.339-0.796
		c0.671-0.586,1.035-1.326,1.094-2.216l1.06-16.104c0.058-0.888-0.206-1.669-0.794-2.338c-0.587-0.671-1.325-1.036-2.214-1.096
		l-6.896-0.454c-0.578-0.442-1.641-1.818-3.191-4.126c-0.889-1.325-1.717-2.458-2.479-3.4c-0.375-0.446-0.626-1.182-0.752-2.211
		c-0.126-1.026-0.311-2.105-0.557-3.233c-0.246-1.127-0.706-2.068-1.381-2.819c-0.613-0.665-1.348-1.025-2.204-1.081
		c-1.408-0.094-2.693,0.095-3.854,0.568c-1.16,0.471-2.072,1.266-2.735,2.385c-0.663,1.119-1.06,2.66-1.189,4.622
		c-0.103,1.561,0.194,3.197,0.89,4.912l-4.429-0.292c-1.744-0.116-3.296,0.421-4.655,1.612c-1.359,1.193-2.095,2.653-2.208,4.381
		c-0.099,1.493,0.221,2.885,0.962,4.184C298.743,245.129,298.629,245.705,298.588,246.31z M329.22,257.046
		c0.029-0.438,0.214-0.804,0.554-1.102s0.729-0.432,1.165-0.403c0.436,0.027,0.802,0.213,1.1,0.552
		c0.298,0.34,0.433,0.728,0.404,1.165c-0.028,0.437-0.213,0.803-0.552,1.1c-0.341,0.3-0.728,0.435-1.165,0.403
		c-0.437-0.026-0.803-0.212-1.101-0.552C329.328,257.87,329.191,257.482,329.22,257.046z M301.185,240.642
		c0.056-0.856,0.434-1.584,1.13-2.188s1.465-0.877,2.305-0.821l8.857,0.584c0.064-0.975-0.25-2.338-0.943-4.095
		c-0.693-1.755-1.007-3.128-0.943-4.117c0.109-1.644,0.457-2.843,1.046-3.596c0.589-0.754,1.689-1.076,3.299-0.971
		c0.408,0.466,0.68,1.199,0.816,2.202c0.136,1.002,0.321,2.073,0.559,3.209c0.237,1.135,0.675,2.088,1.316,2.853
		c0.342,0.411,0.938,1.218,1.786,2.419c0.062,0.087,0.238,0.352,0.529,0.792c0.29,0.441,0.532,0.803,0.724,1.086
		c0.192,0.279,0.458,0.656,0.798,1.125c0.34,0.469,0.651,0.86,0.934,1.174c0.283,0.313,0.586,0.631,0.91,0.957
		c0.325,0.325,0.645,0.575,0.962,0.746c0.317,0.172,0.61,0.27,0.878,0.285l0.806,0.054l-1.06,16.104l-0.805-0.054
		c-0.219-0.014-0.484-0.006-0.799,0.023c-0.313,0.03-0.593,0.066-0.841,0.108c-0.247,0.043-0.572,0.114-0.974,0.215
		c-0.403,0.101-0.702,0.176-0.899,0.231c-0.198,0.053-0.503,0.141-0.916,0.255c-0.411,0.115-0.66,0.189-0.745,0.216
		c-3.622,0.993-6.53,1.416-8.729,1.271l-3.044-0.2c-3.221-0.212-4.739-1.721-4.555-4.521c0.028-0.438,0.1-0.903,0.219-1.402
		c-0.486-0.302-0.855-0.769-1.108-1.398c-0.253-0.633-0.359-1.259-0.318-1.88c0.041-0.62,0.229-1.188,0.567-1.705
		c-0.834-0.898-1.213-1.925-1.136-3.082c0.028-0.421,0.141-0.88,0.343-1.38c0.2-0.5,0.438-0.886,0.708-1.154
		c-0.536-0.052-0.959-0.476-1.27-1.271C301.283,241.919,301.148,241.228,301.185,240.642z"/>
</g>
<g>
	<path fill="#FFFFFF" d="M472.182,236.922c0,0-8.518-0.189-8.912-0.171s-0.074-5.735-0.074-5.735l-1.717-6.171l-4.848-0.403
		l-3.115,8.577l-4.401,7.332l-3.354,1.029l-1.198,11.453l-4.042,2.368c0,0-0.344,3.617-0.092,3.922s9.047,0.521,9.047,0.521
		s9.788,2.78,10.184,2.762c0.395-0.019,7.652-1.353,7.904-1.048s4.104-3.598,4.104-3.598l1.253-6.114l-0.255-6.2l1.482-3.791
		L472.182,236.922z"/>
	<path fill="#475993" stroke="#FFFFFF" stroke-miterlimit="10" d="M474.871,244.588c0.74-1.299,1.061-2.69,0.961-4.184
		c-0.113-1.728-0.848-3.188-2.207-4.381c-1.359-1.191-2.911-1.729-4.655-1.612l-4.429,0.292c0.695-1.715,0.992-3.352,0.889-4.912
		c-0.129-1.962-0.525-3.503-1.188-4.622s-1.575-1.914-2.735-2.385c-1.16-0.474-2.445-0.662-3.854-0.568
		c-0.856,0.056-1.592,0.416-2.204,1.081c-0.675,0.751-1.136,1.692-1.382,2.819c-0.246,1.128-0.431,2.207-0.557,3.233
		c-0.126,1.029-0.377,1.765-0.752,2.211c-0.764,0.942-1.591,2.075-2.48,3.4c-1.55,2.308-2.613,3.684-3.191,4.126l-6.895,0.454
		c-0.89,0.06-1.627,0.425-2.215,1.096c-0.588,0.669-0.852,1.45-0.794,2.338l1.06,16.104c0.061,0.89,0.424,1.63,1.095,2.216
		c0.671,0.588,1.45,0.853,2.339,0.796l7.248-0.478c0.369-0.025,1.548,0.234,3.539,0.777c2.111,0.586,3.963,1.016,5.557,1.291
		c1.594,0.271,3.195,0.355,4.806,0.249l2.341-0.152l0.906-0.061c2.363-0.156,4.224-0.958,5.578-2.402
		c1.353-1.445,1.945-3.333,1.774-5.665c0.923-1.357,1.327-2.884,1.216-4.576c-0.024-0.371-0.072-0.729-0.146-1.079
		c0.562-1.165,0.803-2.395,0.719-3.685C475.172,245.705,475.059,245.129,474.871,244.588z M444.176,258.209
		c-0.297,0.34-0.664,0.525-1.101,0.552c-0.437,0.031-0.823-0.104-1.165-0.403c-0.338-0.297-0.523-0.663-0.552-1.1
		c-0.028-0.438,0.106-0.825,0.403-1.165c0.299-0.339,0.664-0.524,1.101-0.552c0.437-0.028,0.825,0.105,1.165,0.403
		s0.525,0.664,0.554,1.102C444.609,257.482,444.473,257.87,444.176,258.209z M472.209,242.717c-0.311,0.795-0.733,1.219-1.27,1.271
		c0.271,0.269,0.508,0.654,0.708,1.154c0.202,0.5,0.315,0.959,0.343,1.38c0.077,1.157-0.301,2.184-1.136,3.082
		c0.338,0.517,0.526,1.085,0.567,1.705c0.041,0.621-0.064,1.247-0.318,1.88c-0.254,0.63-0.623,1.097-1.108,1.398
		c0.118,0.499,0.19,0.965,0.219,1.402c0.185,2.8-1.334,4.309-4.555,4.521l-3.044,0.2c-2.199,0.145-5.107-0.278-8.729-1.271
		c-0.085-0.026-0.334-0.101-0.745-0.216c-0.413-0.114-0.719-0.202-0.916-0.255c-0.197-0.056-0.496-0.131-0.899-0.231
		c-0.402-0.101-0.728-0.172-0.974-0.215c-0.248-0.042-0.528-0.078-0.842-0.108c-0.314-0.029-0.58-0.037-0.799-0.023l-0.805,0.054
		l-1.06-16.104l0.806-0.054c0.268-0.016,0.561-0.113,0.878-0.285c0.317-0.171,0.638-0.421,0.962-0.746
		c0.324-0.326,0.627-0.644,0.91-0.957c0.282-0.313,0.594-0.705,0.934-1.174s0.605-0.846,0.798-1.125
		c0.192-0.283,0.435-0.645,0.724-1.086c0.292-0.44,0.468-0.705,0.529-0.792c0.849-1.201,1.444-2.008,1.787-2.419
		c0.641-0.765,1.078-1.718,1.316-2.853c0.237-1.136,0.423-2.207,0.559-3.209c0.137-1.003,0.408-1.736,0.816-2.202
		c1.609-0.105,2.71,0.217,3.299,0.971c0.589,0.753,0.938,1.952,1.046,3.596c0.063,0.989-0.25,2.362-0.943,4.117
		c-0.692,1.757-1.007,3.12-0.942,4.095l8.856-0.584c0.84-0.056,1.608,0.218,2.305,0.821s1.074,1.331,1.13,2.188
		C472.652,241.228,472.518,241.919,472.209,242.717z"/>
</g>
<g>
	<path fill="#475993" stroke="#FFFFFF" stroke-miterlimit="10" d="M366.25,225.5c0,4.971-4.029,9-9,9s-9-4.029-9-9s9-23,9-23
		S366.25,220.529,366.25,225.5z"/>
	<path fill="#475993" stroke="#FFFFFF" stroke-linecap="round" stroke-miterlimit="10" d="M352.5,224.25c0,0-1.5,3.625,1.25,5.375"
		/>
</g>
</svg>
